<?xml version="1.0" standalone="no"?>
<!DOCTYPE svg PUBLIC "-//W3C//DTD SVG 20010904//EN"
 "http://www.w3.org/TR/2001/REC-SVG-20010904/DTD/svg10.dtd">
<svg version="1.0" xmlns="http://www.w3.org/2000/svg"
 width="1280.000000pt" height="1025.000000pt" viewBox="0 0 1280.000000 1025.000000"
 preserveAspectRatio="xMidYMid meet">
<metadata>
Created by potrace 1.15, written by Peter Selinger 2001-2017
</metadata>
<g transform="translate(0.000000,1025.000000) scale(0.100000,-0.100000)"
fill="#000000" stroke="none">
<path d="M0 8705 l0 -1545 6400 0 6400 0 0 1545 0 1545 -6400 0 -6400 0 0
-1545z"/>
<path d="M5090 6834 c-309 -21 -552 -81 -764 -188 -418 -212 -675 -581 -762
-1091 -21 -122 -29 -415 -15 -548 60 -586 327 -1057 763 -1344 151 -99 259
-146 543 -233 161 -49 378 -69 573 -52 757 68 1281 556 1449 1347 26 123 27
144 27 400 1 297 -7 362 -64 550 -103 338 -203 517 -390 705 -246 247 -565
393 -960 439 -101 12 -322 20 -400 15z m410 -809 c94 -17 229 -107 299 -202
120 -160 182 -411 167 -678 -32 -577 -304 -940 -721 -962 -200 -10 -361 51
-500 191 -132 134 -202 275 -235 476 -25 156 -27 384 -4 515 64 372 271 597
605 660 73 14 310 14 389 0z"/>
<path d="M330 6713 c0 -85 -61 87 622 -1748 88 -236 250 -671 359 -965 110
-294 204 -545 209 -557 8 -20 17 -23 64 -23 33 0 66 -7 84 -17 27 -16 42 -16
173 -4 246 22 483 71 541 113 39 27 206 364 415 838 124 280 335 800 407 999
7 20 41 113 75 206 113 308 123 337 223 639 134 409 143 446 102 446 -18 0
-18 15 1 76 8 27 15 55 15 62 0 9 -102 12 -479 12 -448 0 -480 -1 -485 -17 -3
-10 -26 -93 -51 -185 -87 -319 -177 -615 -300 -983 -120 -360 -275 -787 -312
-859 l-19 -36 -299 927 c-165 511 -318 978 -340 1038 l-41 110 -482 3 -482 2
0 -77z"/>
<path d="M6910 6392 l0 -399 70 -6 c44 -4 76 -12 86 -21 13 -14 68 -16 429
-16 l413 0 6 -22 c3 -13 6 -573 6 -1245 l0 -1223 63 0 c43 0 70 -5 87 -17 23
-16 58 -18 377 -18 325 0 354 1 370 18 17 17 18 83 23 1222 l5 1204 21 28 c37
49 65 51 522 52 408 1 423 2 442 21 18 18 20 33 20 178 0 182 -10 252 -51 379
-47 144 -93 202 -191 241 -40 16 -139 17 -1370 20 l-1328 2 0 -398z"/>
<path d="M10510 6780 c-240 -14 -339 -60 -397 -187 -41 -88 -45 -230 -40
-1351 3 -899 6 -1039 20 -1127 34 -204 93 -332 201 -440 86 -85 183 -138 346
-188 197 -61 210 -62 1018 -62 l734 0 19 24 c19 23 20 39 17 308 -2 202 -6
286 -15 291 -6 4 -14 40 -18 79 l-7 72 -627 4 c-674 3 -679 4 -732 56 -27 27
-27 28 -28 177 0 165 8 206 52 238 28 20 41 21 529 26 480 5 500 6 514 24 11
16 14 69 14 267 0 216 -2 250 -16 264 -11 11 -18 40 -22 86 l-5 69 -521 0
c-286 0 -527 4 -534 9 -19 11 -13 484 6 522 29 56 4 54 700 59 l644 5 19 24
c16 20 19 40 19 151 0 142 -14 271 -35 312 -7 15 -17 42 -20 60 -20 90 -81
173 -154 207 l-56 26 -750 1 c-412 1 -806 -2 -875 -6z"/>
<path d="M0 1545 l0 -1545 6400 0 6400 0 0 1545 0 1545 -6400 0 -6400 0 0
-1545z"/>
</g>
</svg>
