<?xml version="1.0" standalone="no"?>
<!DOCTYPE svg PUBLIC "-//W3C//DTD SVG 20010904//EN"
 "http://www.w3.org/TR/2001/REC-SVG-20010904/DTD/svg10.dtd">
<svg version="1.0" xmlns="http://www.w3.org/2000/svg"
 width="1047.000000pt" height="1280.000000pt" viewBox="0 0 1047.000000 1280.000000"
 preserveAspectRatio="xMidYMid meet">
<metadata>
Created by potrace 1.15, written by Peter Selinger 2001-2017
</metadata>
<g transform="translate(0.000000,1280.000000) scale(0.100000,-0.100000)"
fill="#4caf50" stroke="none">
<path d="M9605 12552 c-427 -217 -641 -328 -1079 -562 -109 -59 -104 -59 -141
5 -10 16 -13 16 -48 -5 -40 -24 -44 -35 -22 -64 24 -32 18 -42 -47 -76 -458
-244 -739 -436 -1338 -915 -338 -271 -515 -423 -714 -616 -461 -446 -775 -893
-1236 -1757 l-114 -213 -35 5 c-127 20 -555 57 -600 52 -125 -14 -212 -85
-281 -227 -37 -78 -54 -140 -116 -424 -45 -209 -84 -318 -261 -745 -214 -512
-338 -946 -398 -1385 -9 -66 -18 -129 -20 -141 -4 -16 -19 -25 -72 -39 -228
-61 -683 -232 -683 -257 0 -8 27 -67 35 -76 2 -2 46 15 98 37 373 159 688 246
1172 326 342 57 437 83 776 216 389 152 487 180 934 265 304 58 489 113 665
198 49 23 32 106 -23 106 -11 0 -38 -12 -58 -26 -90 -62 -307 -128 -624 -188
-99 -19 -182 -32 -184 -30 -3 3 102 310 172 498 l33 89 147 39 c173 44 327
100 527 192 167 76 191 82 249 66 23 -6 306 -125 629 -264 323 -140 835 -361
1137 -491 621 -268 706 -309 778 -375 l52 -48 -141 -70 c-774 -388 -1559 -621
-3074 -912 -732 -141 -864 -174 -1315 -332 -559 -196 -1021 -333 -1727 -514
l-107 -28 -94 91 c-223 213 -417 333 -812 500 -503 214 -621 295 -1283 887
l-203 181 33 7 c18 4 139 30 268 57 287 61 527 116 945 216 391 94 1878 465
1883 469 8 9 -20 86 -32 86 -7 0 -429 -103 -937 -229 -1160 -288 -1488 -366
-2043 -482 -163 -34 -223 -49 -192 -49 7 0 -29 -47 -68 -90 -12 -13 -7 -41 35
-195 179 -658 289 -1274 399 -2225 99 -858 175 -1325 296 -1817 72 -297 87
-338 147 -397 47 -46 72 -60 252 -135 309 -129 1485 -623 1733 -728 32 -13 33
-13 28 5 -6 18 4 19 221 26 445 13 1209 58 1728 102 483 40 1182 115 1625 175
696 93 1375 201 1422 225 37 19 67 52 85 93 18 43 215 831 332 1331 265 1134
501 2284 691 3375 33 193 63 356 65 363 5 13 0 16 -47 26 -16 4 -28 13 -28 22
0 23 -107 124 -172 162 -63 37 -181 91 -538 245 -343 147 -1062 458 -1530 660
l-395 171 -90 1 c-89 0 -91 -1 -215 -58 -142 -67 -239 -107 -360 -149 -98 -33
-238 -70 -250 -66 -9 3 147 417 244 649 l15 37 38 -13 c21 -7 52 -16 69 -19
l31 -7 0 183 -1 183 43 100 c24 55 47 104 51 108 4 5 11 -44 15 -110 10 -174
23 -251 51 -313 30 -65 55 -94 109 -125 53 -30 98 -37 152 -24 43 11 45 13 39
43 -3 17 -11 88 -18 158 -15 153 -1 339 35 488 28 111 29 108 47 -100 25 -277
75 -426 176 -527 79 -79 147 -108 255 -108 78 0 90 3 135 30 59 37 109 114
119 184 16 114 -41 192 -183 249 -94 38 -122 67 -122 124 0 69 25 105 193 277
219 224 332 371 467 606 125 216 217 450 290 734 23 91 53 187 67 215 74 145
278 272 793 490 401 171 780 363 1048 533 l64 40 49 -18 c156 -59 474 -139
489 -122 14 16 19 84 7 88 -7 2 -66 15 -132 29 -116 25 -259 66 -290 84 -12 6
11 26 91 81 176 121 445 328 584 448 2 2 -12 19 -31 38 l-34 35 -104 -86
c-215 -177 -613 -464 -644 -464 -30 0 -333 159 -452 237 -239 157 -466 364
-635 577 -47 59 -86 110 -88 114 -3 11 606 332 1166 615 270 136 492 252 492
257 0 14 -33 80 -39 80 -3 0 -226 -112 -496 -248z m-1134 -849 c93 -123 284
-320 414 -430 138 -116 364 -265 527 -348 76 -39 138 -73 138 -76 0 -12 -315
-189 -525 -294 -121 -61 -333 -159 -471 -218 -327 -139 -423 -184 -542 -253
-127 -75 -185 -118 -253 -190 -74 -79 -100 -137 -153 -339 -92 -353 -200 -603
-372 -862 -104 -157 -193 -264 -369 -443 -179 -182 -208 -229 -209 -330 -1
-116 43 -169 187 -225 90 -36 121 -72 115 -136 -12 -121 -127 -175 -255 -120
-100 44 -176 158 -207 311 -9 41 -29 228 -46 415 -17 187 -34 351 -37 365 -4
21 -12 10 -50 -70 -66 -142 -108 -262 -137 -390 -28 -126 -50 -355 -42 -435 3
-27 8 -78 11 -113 l6 -63 -28 15 c-41 21 -70 56 -88 106 -17 48 -32 222 -60
695 -9 154 -20 288 -23 298 -5 13 -22 -18 -61 -109 -122 -286 -179 -529 -188
-801 -3 -90 -9 -163 -14 -163 -16 0 -121 105 -144 145 -62 106 -85 233 -65
367 17 117 59 241 161 478 l89 205 -168 -170 c-319 -324 -513 -627 -662 -1034
-21 -57 -43 -108 -49 -114 -15 -15 -43 14 -81 85 -45 84 -60 148 -60 258 0
168 34 270 185 565 369 722 688 1233 1003 1610 107 128 482 500 643 637 160
137 526 431 757 608 227 174 373 277 520 369 149 92 502 290 518 291 6 0 44
-44 85 -97z m-3911 -3418 c135 -14 248 -25 252 -25 4 0 -13 -42 -36 -92 -106
-229 -138 -416 -101 -593 28 -132 124 -284 190 -301 74 -18 119 30 180 194 87
233 187 424 322 620 35 50 71 92 78 92 18 0 18 1 -1 -90 -21 -100 -21 -248 0
-329 23 -91 72 -185 128 -246 26 -29 48 -56 48 -59 0 -3 -47 -124 -104 -268
-57 -145 -123 -316 -147 -380 -35 -94 -48 -118 -67 -123 -20 -5 -21 -10 -16
-43 5 -31 -8 -76 -69 -247 -41 -116 -89 -254 -106 -307 l-33 -98 -41 -10
c-222 -58 -306 -86 -563 -188 -333 -134 -416 -157 -774 -218 -146 -25 -304
-54 -352 -65 -48 -10 -89 -19 -91 -19 -8 0 44 315 77 471 74 340 160 607 336
1029 190 459 215 532 275 822 56 267 96 370 170 440 68 66 101 68 445 33z
m1533 -2070 c-2 -12 -61 -31 -69 -22 -4 3 -4 13 0 22 7 18 72 18 69 0z m2842
-737 c-192 -1112 -460 -2420 -730 -3568 -123 -524 -292 -1200 -309 -1236 -8
-17 -27 -36 -43 -42 -59 -23 -961 -161 -1513 -231 -785 -100 -1492 -166 -2295
-216 -547 -33 -1156 -57 -1168 -45 -13 11 -101 375 -153 625 -195 950 -255
1876 -182 2832 6 83 14 156 17 162 4 6 76 29 161 51 793 206 1157 316 1790
539 341 121 469 151 1435 341 846 166 1334 287 1855 460 402 133 865 325 1090
452 35 20 66 35 68 33 2 -2 -8 -72 -23 -157z m-8622 -220 c661 -590 752 -653
1267 -878 140 -62 295 -132 343 -157 168 -87 359 -227 485 -356 l54 -55 -16
-193 c-87 -1063 7 -2196 274 -3278 22 -90 39 -165 37 -167 -2 -2 -124 48 -273
110 -148 62 -465 196 -704 296 -788 330 -789 331 -820 362 -35 34 -61 111
-120 355 -116 470 -198 970 -290 1773 -76 664 -136 1064 -226 1510 -42 205
-132 591 -173 738 -16 56 -27 102 -24 102 2 0 86 -73 186 -162z"/>
<path d="M6551 4437 c-30 -10 -83 -80 -398 -521 -200 -280 -362 -510 -361
-510 2 -1 20 -14 40 -29 l37 -27 357 501 c306 428 360 500 378 496 12 -3 290
-52 618 -109 329 -56 597 -106 595 -110 -1 -4 -77 -89 -168 -190 -92 -101
-196 -218 -233 -261 -271 -320 -445 -625 -571 -1002 -58 -172 -58 -168 7 -180
37 -7 37 -7 48 37 68 251 201 537 365 783 117 176 206 284 507 613 132 145
238 265 236 268 -6 5 -80 19 -773 139 -335 58 -619 107 -630 109 -11 3 -35 -1
-54 -7z"/>
<path d="M4870 3567 c-51 -33 -135 -175 -320 -537 -165 -323 -238 -449 -331
-566 l-48 -61 37 -31 38 -30 47 59 c95 119 184 269 347 588 161 316 231 441
274 489 27 30 39 28 206 -46 292 -130 639 -224 910 -247 104 -9 105 -10 82
-42 -31 -44 -119 -225 -167 -342 -80 -195 -158 -474 -225 -796 -17 -82 -33
-158 -36 -167 -5 -17 2 -21 62 -33 l31 -6 28 138 c118 582 254 957 451 1252
24 36 42 66 40 68 -1 2 -63 8 -137 13 -353 27 -699 115 -1023 260 -154 69
-208 77 -266 37z"/>
<path d="M5335 2639 c-193 -82 -547 -198 -765 -251 -203 -48 -296 -66 -565
-108 -66 -10 -367 -38 -455 -42 l-55 -3 -3 -75 c-10 -227 56 -502 309 -1307
10 -30 11 -31 47 -21 20 5 41 13 45 18 5 4 -39 163 -98 353 -150 490 -205 728
-205 885 0 56 8 62 90 62 61 0 356 36 510 61 289 48 620 134 908 235 86 31
164 58 172 60 13 4 18 -13 27 -99 15 -129 53 -250 151 -477 74 -174 122 -301
122 -327 0 -9 -14 -13 -42 -14 -46 -1 -45 -2 18 -18 l41 -11 28 -107 c32 -124
73 -235 111 -296 26 -42 103 -127 114 -127 4 0 19 17 33 37 l26 37 -45 48
c-25 27 -58 77 -74 111 -27 60 -80 227 -80 253 0 8 53 -4 152 -33 403 -119
823 -291 1178 -483 l135 -73 64 69 c291 312 493 598 674 954 80 157 87 175 70
182 -10 4 -265 75 -568 157 -667 182 -796 224 -938 307 -32 19 -60 34 -62 34
-6 0 -45 -67 -45 -78 0 -17 206 -116 333 -161 65 -22 351 -104 635 -182 284
-78 519 -143 521 -144 7 -7 -128 -255 -210 -386 -105 -168 -230 -334 -371
-494 -60 -68 -112 -126 -116 -129 -5 -3 -91 37 -193 89 -204 104 -373 180
-582 261 -147 58 -460 164 -483 164 -8 0 -14 4 -14 10 0 5 -45 11 -100 12
l-101 3 -34 100 c-18 55 -69 183 -113 285 -44 102 -92 226 -106 275 -34 115
-43 245 -23 343 7 39 11 72 8 72 -3 0 -37 -14 -76 -31z"/>
<path d="M5025 5807 c-84 -273 -275 -790 -336 -908 -37 -73 -37 -73 -290 -39
-395 54 -1196 184 -1208 196 -2 2 8 30 22 61 31 69 59 186 51 208 -5 12 -18
15 -53 13 l-46 -3 -7 -55 c-10 -85 -42 -158 -98 -228 -34 -41 -47 -64 -38 -66
35 -11 610 -109 910 -156 340 -52 627 -90 682 -90 61 0 107 25 143 78 40 60
281 693 337 884 9 32 19 64 22 71 4 10 -9 19 -41 30 -35 12 -47 13 -50 4z"/>
</g>
</svg>
